<?xml version="1.0" encoding="utf-8" standalone="no"?>
<!DOCTYPE svg PUBLIC "-//W3C//DTD SVG 1.1//EN" "http://www.w3.org/Graphics/SVG/1.1/DTD/svg11.dtd">
<svg width="750" height="300" version="1.1" xmlns:xlink="http://www.w3.org/1999/xlink" xmlns="http://www.w3.org/2000/svg">
  <polyline points="44.02,223.3455 742,223.3455" style="fill:none;stroke:rgb(244,244,244);stroke-width:1" />
  <polyline points="44.02,210.1138 742,210.1138" style="fill:none;stroke:rgb(244,244,244);stroke-width:1" />
  <polyline points="44.02,196.8821 742,196.8821" style="fill:none;stroke:rgb(244,244,244);stroke-width:1" />
  <polyline points="44.02,183.6505 742,183.6505" style="fill:none;stroke:rgb(244,244,244);stroke-width:1" />
  <polyline points="44.02,157.1871 742,157.1871" style="fill:none;stroke:rgb(244,244,244);stroke-width:1" />
  <polyline points="44.02,143.9554 742,143.9554" style="fill:none;stroke:rgb(244,244,244);stroke-width:1" />
  <polyline points="44.02,130.7237 742,130.7237" style="fill:none;stroke:rgb(244,244,244);stroke-width:1" />
  <polyline points="44.02,117.4921 742,117.4921" style="fill:none;stroke:rgb(244,244,244);stroke-width:1" />
  <polyline points="44.02,91.0287 742,91.0287" style="fill:none;stroke:rgb(244,244,244);stroke-width:1" />
  <polyline points="44.02,77.797 742,77.797" style="fill:none;stroke:rgb(244,244,244);stroke-width:1" />
  <polyline points="44.02,64.5653 742,64.5653" style="fill:none;stroke:rgb(244,244,244);stroke-width:1" />
  <polyline points="44.02,51.3337 742,51.3337" style="fill:none;stroke:rgb(244,244,244);stroke-width:1" />
  <polyline points="44.02,24.8703 742,24.8703" style="fill:none;stroke:rgb(244,244,244);stroke-width:1" />
  <polyline points="44.02,11.6386 742,11.6386" style="fill:none;stroke:rgb(244,244,244);stroke-width:1" />
  <text dominant-baseline="middle" text-anchor="end" transform="translate(33.02,236.894)" font-family="Arial" font-size="12" font-weight="400" fill="black">0</text>
  <text dominant-baseline="middle" text-anchor="end" transform="translate(33.02,170.4188)" font-family="Arial" font-size="12" font-weight="400" fill="black">5000</text>
  <text dominant-baseline="middle" text-anchor="end" transform="translate(33.02,104.2604)" font-family="Arial" font-size="12" font-weight="400" fill="black">10000</text>
  <text dominant-baseline="middle" text-anchor="end" transform="translate(33.02,38.102)" font-family="Arial" font-size="12" font-weight="400" fill="black">15000</text>
  <polyline points="44.02,236.894 742,236.894" style="fill:none;stroke:rgb(230,230,230);stroke-width:1" />
  <polyline points="44.02,170.4188 742,170.4188" style="fill:none;stroke:rgb(230,230,230);stroke-width:1" />
  <polyline points="44.02,104.2604 742,104.2604" style="fill:none;stroke:rgb(230,230,230);stroke-width:1" />
  <polyline points="44.02,38.102 742,38.102" style="fill:none;stroke:rgb(230,230,230);stroke-width:1" />
  <text dominant-baseline="hanging" text-anchor="middle" transform="translate(51.7369,247.894)" font-family="Arial" font-size="12" font-weight="400" fill="black">08/09</text>
  <text dominant-baseline="hanging" text-anchor="middle" transform="translate(138.9844,247.894)" font-family="Arial" font-size="12" font-weight="400" fill="black">08/10</text>
  <text dominant-baseline="hanging" text-anchor="middle" transform="translate(226.2319,247.894)" font-family="Arial" font-size="12" font-weight="400" fill="black">08/10</text>
  <text dominant-baseline="hanging" text-anchor="middle" transform="translate(313.4794,247.894)" font-family="Arial" font-size="12" font-weight="400" fill="black">08/11</text>
  <text dominant-baseline="hanging" text-anchor="middle" transform="translate(400.7269,247.894)" font-family="Arial" font-size="12" font-weight="400" fill="black">08/11</text>
  <text dominant-baseline="hanging" text-anchor="middle" transform="translate(487.9744,247.894)" font-family="Arial" font-size="12" font-weight="400" fill="black">08/12</text>
  <text dominant-baseline="hanging" text-anchor="middle" transform="translate(575.2219,247.894)" font-family="Arial" font-size="12" font-weight="400" fill="black">08/12</text>
  <text dominant-baseline="hanging" text-anchor="middle" transform="translate(662.4694,247.894)" font-family="Arial" font-size="12" font-weight="400" fill="black">08/13</text>
  <polyline points="51.7369,236.894 51.7369,243.894" style="fill:none;stroke:rgb(238,238,238);stroke-width:1" />
  <polyline points="138.9844,236.894 138.9844,243.894" style="fill:none;stroke:rgb(238,238,238);stroke-width:1" />
  <polyline points="226.2319,236.894 226.2319,243.894" style="fill:none;stroke:rgb(238,238,238);stroke-width:1" />
  <polyline points="313.4794,236.894 313.4794,243.894" style="fill:none;stroke:rgb(238,238,238);stroke-width:1" />
  <polyline points="400.7269,236.894 400.7269,243.894" style="fill:none;stroke:rgb(238,238,238);stroke-width:1" />
  <polyline points="487.9744,236.894 487.9744,243.894" style="fill:none;stroke:rgb(238,238,238);stroke-width:1" />
  <polyline points="575.2219,236.894 575.2219,243.894" style="fill:none;stroke:rgb(238,238,238);stroke-width:1" />
  <polyline points="662.4694,236.894 662.4694,243.894" style="fill:none;stroke:rgb(238,238,238);stroke-width:1" />
  <polyline points="51.2522,200.7382 51.8581,217.931 52.464,201.8989 53.0699,207.2029 53.6758,202.1981 54.2817,205.9346 54.8875,203.7708 55.4934,196.5424 56.0993,185.7505 56.7052,190.3407 57.3111,205.6868 57.917,190.6389 58.5229,195.7318 59.1287,192.8345 59.7346,186.6335 60.3405,204.432 60.9464,195.2867 61.5523,198.9786 62.1582,202.7258 62.7641,208.0278 63.3699,188.7964 63.9758,206.9597 64.5817,190.6417 65.1876,196.6614 65.7935,189.3322 66.3994,200.9422 67.0053,185.0548 67.6111,207.8539 68.217,202.1251 68.8229,197.121 69.4288,201.6074 70.0347,202.2215 70.6406,198.4938 71.2465,204.0693 71.8523,198.8553 72.4582,190.2348 73.0641,188.146 73.67,197.6949 74.2759,209.7731 74.8818,206.535 75.4877,205.7325" style="fill:none;stroke:rgb(31,119,180);stroke-width:1.5;stroke-linejoin:bevel" />
  <polyline points="76.6994,214.3612 77.3053,205.7359 77.9112,223.9501 78.5171,218.3589 79.123,191.2618 79.7289,201.7849 80.3347,209.15 80.9406,219.9973 81.5465,210.8346 82.1524,201.2048 82.7583,206.961 83.3642,199.2985 83.97,204.3155 84.5759,200.4979 85.1818,216.6982 85.7877,193.7046 86.3936,196.6513 86.9995,187.0088 88.2112,187.9603 88.8171,188.1592 89.423,191.3013 90.0289,206.7567 90.6348,173.3024 91.2407,192.713 91.8466,188.4271 92.4524,194.4169 93.0583,186.4105 93.6642,191.0137 94.2701,180.708 94.876,184.1434 95.4819,217.7529 96.0878,206.5858 96.6936,201.064 97.2995,197.0592 97.9054,200.323 98.5113,170.0247 99.1172,192.0319 100.329,193.4229 100.9348,183.6308 101.5407,182.5048 102.1466,190.2534 102.7525,210.4554 103.3584,197.3557 103.9643,208.3509 104.5702,187.1034 105.176,201.096 105.7819,179.0716 106.3878,203.1312 106.9937,191.0853 107.5996,221.8875 108.2055,197.5239 108.8114,204.9146 109.4172,188.9769 110.0231,223.0078 110.629,193.8748 111.2349,214.3288 111.8408,231.3845 112.4467,230.7189 113.0525,230.7387" style="fill:none;stroke:rgb(31,119,180);stroke-width:1.5;stroke-linejoin:bevel" />
  <polyline points="114.8702,219.0017 115.4761,230.7222 116.082,209.9425 116.6879,208.7344 117.2937,203.0635 117.8996,190.1533 118.5055,193.4113 119.1114,214.3466 119.7173,210.5441 120.3232,193.5541 120.9291,216.503 121.5349,203.3811 122.1408,208.004 122.7467,187.6021 123.3526,192.9751 123.9585,200.8569 124.5644,221.2148 125.1703,198.8537 125.7761,217.045 126.382,203.0349 126.9879,208.1854 127.5938,177.3703 128.1997,211.9968 128.8056,192.1331 129.4115,212.7527 130.0173,197.48 130.6232,179.9347 131.2291,203.3275 131.835,208.7664 132.4409,217.9018 133.0468,199.8572 133.6527,197.5045 134.2585,202.0923 134.8644,182.3769 135.4703,196.7581 136.0762,176.7505 136.6821,193.2061 137.288,179.1827 137.8939,177.0808 138.4997,185.5449 139.1056,207.2268 139.7115,195.4291 140.3174,197.327 140.9233,207.0014 141.5292,206.4638 142.135,210.7413 142.7409,210.7998 143.3468,193.2633 143.9527,202.45 144.5586,204.4157 145.1645,189.4655 145.7704,192.0011 146.3762,200.9011 146.9821,180.6009 147.588,193.3071 148.1939,209.9773 148.7998,198.4718 149.4057,203.9332 150.0116,234.6277 150.6174,206.6945 151.2233,202.1528 151.8292,216.3471 152.4351,234.6277 153.041,205.3372 153.6469,196.9971 154.2528,209.618 154.8586,195.8891 155.4645,202.5646 156.0704,195.0271 156.6763,219.1974 157.2822,201.693 157.8881,230.7189 158.494,202.1704 159.0998,230.7172 159.7057,230.7189 160.3116,215.5474 160.9175,205.3701 161.5234,203.497 162.1293,210.973 162.7352,203.215 163.341,199.9334 163.9469,199.9239 164.5528,197.482 165.1587,193.7023 165.7646,200.8201 166.3705,230.7371 166.9764,199.9177 167.5822,220.1061 168.1881,10.2438 168.794,192.4533 169.3999,223.2846 170.0058,207.1709 170.6117,230.7023" style="fill:none;stroke:rgb(31,119,180);stroke-width:1.5;stroke-linejoin:bevel" />
  <polyline points="171.8234,213.431 172.4293,198.7824 173.0352,208.6583 173.6411,174.3163 174.247,222.8968 174.8529,222.868 175.4587,234.6277 176.0646,207.1643 176.6705,203.7931 177.2764,230.7387 177.8823,213.1564 178.4882,205.5151 179.0941,205.3942 179.6999,217.0296 180.3058,218.4082 180.9117,230.7387 181.5176,199.9751 182.1235,207.3211 182.7294,222.8265 183.3353,207.0423 183.9411,203.9372 184.547,207.4564 185.1529,199.1101 185.7588,213.6381 186.3647,184.6872 186.9706,202.3815 187.5765,196.4203 188.1823,202.4352 188.7882,191.673 189.3941,209.3747 190,195.387 190.6059,201.7288 191.2118,193.0454 191.8177,203.0504 192.4235,201.827 193.0294,221.1446 193.6353,200.6635 194.2412,214.0886 194.8471,204.8018 195.453,206.5102 196.0589,186.6785 196.6647,210.5672 197.2706,190.1886 197.8765,204.2277 198.4824,186.4805 199.0883,231.2104 199.6942,202.1704 200.3,219.1083 200.9059,199.7553 201.5118,210.9295 202.1177,202.0263 202.7236,200.0366 203.3295,183.1863 203.9354,202.5648 204.5412,190.8723 205.1471,203.568 205.753,175.9614 206.3589,219.8332 206.9648,189.8186 207.5707,211.1342 208.1766,183.3366 208.7824,189.3606 209.3883,185.4779 209.9942,205.3614 210.6001,207.9741 211.206,190.0215 211.8119,203.2953 212.4178,200.6031 213.0236,204.0603 213.6295,196.7168 214.2354,200.2752 214.8413,178.667 215.4472,191.0837 216.0531,180.2531 216.659,172.6086 217.2648,197.0839 217.8707,191.4813 218.4766,205.8953 219.0825,182.6179 219.6884,211.147 220.2943,196.716 220.9002,209.2644 221.506,196.7072 222.1119,220.1493 222.7178,202.0734 223.3237,223.1725 223.9296,202.1963 224.5355,228.4255 225.1414,201.9896 225.7472,219.1768 226.3531,205.6911 226.959,213.1825 227.5649,164.7174 228.1708,213.4308 228.7767,196.3823 229.3825,210.9521 229.9884,196.4559 230.5943,201.588 231.2002,186.2628 231.8061,203.4823 232.412,196.4669 233.0179,204.9656 233.6237,193.8135 234.2296,187.2313 234.8355,189.5973 235.4414,188.6905 236.0473,201.3803 236.6532,202.0983 237.2591,191.3584 237.8649,194.4295 238.4708,199.5541 239.0767,202.6062 239.6826,193.4218 240.2885,195.6116 240.8944,200.2757 242.1061,201.7137 242.712,197.9222 243.3179,206.5343 243.9238,198.5039 244.5297,202.0377 245.1356,194.301 245.7415,174.108 246.3473,197.6586 246.9532,184.1881 247.5591,205.2384 248.165,200.1469 248.7709,197.9109 249.3768,210.6142 249.9827,208.6433 250.5885,197.0955 251.1944,203.4789 252.4062,204.5777 253.0121,194.1892 254.2239,194.4471 254.8297,198.7667 255.4356,200.9369 256.0415,205.3414 256.6474,185.8855 257.2533,180.7229 257.8592,178.9464 258.465,191.7009 259.0709,168.016 259.6768,185.0869 260.2827,184.8576 260.8886,194.7067 261.4945,192.7359 262.1004,193.6373 262.7062,198.6717 263.3121,193.2302 263.918,196.7501 264.5239,198.621 265.1298,190.2839 265.7357,199.288 266.3416,180.7402 266.9474,192.2693 267.5533,181.3095 268.1592,184.1423 268.7651,179.7319 269.371,204.1599 269.9769,189.1818 270.5828,196.6585 271.1886,174.6994 271.7945,176.7354 272.4004,195.2058 273.0063,198.9209 273.6122,188.5624 274.2181,210.5672 274.824,196.1891 275.4298,210.5407 276.0357,178.2927 276.6416,189.0534 277.2475,189.2553 277.8534,204.8761 278.4593,179.1521 279.0652,202.1711 279.671,186.363 280.2769,208.4308 280.8828,198.4309 281.4887,192.5321 282.0946,184.101 282.7005,194.4531 283.3064,183.2793 283.9122,200.031 284.5181,202.844 285.124,199.7899 285.7299,197.9054 286.3358,203.2724 286.9417,188.1644 287.5475,203.0674 288.1534,165.1384 288.7593,182.8143 289.3652,182.0533 289.9711,187.0647 290.577,198.3318 291.1829,188.8456 291.7887,209.5491 292.3946,207.2781 293.0005,203.2828 293.6064,208.4781 294.2123,193.7925 294.8182,189.3815 295.4241,205.0773 296.0299,223.2529 296.6358,198.5361 297.2417,185.013 297.8476,184.5378 298.4535,208.2041 299.0594,191.8311 299.6653,207.6733 300.2711,214.3916 300.877,214.7495 301.4829,181.17 302.0888,210.4654 302.6947,203.6038 303.3006,208.6659 303.9065,203.3052 304.5123,203.9468 305.1182,211.8838 305.7241,206.5423 306.33,203.1258 306.9359,197.6836 308.1477,198.246 308.7535,195.1376 309.3594,184.9929 309.9653,191.647 310.5712,197.4425 311.1771,194.0751 311.783,188.2681 312.3889,182.6272 312.9947,206.1877 313.6006,191.3362 314.2065,207.1535 314.8124,188.4105 315.4183,196.1285 316.0242,179.9059 316.63,198.4056 317.2359,199.8769 317.8418,192.7941 318.4477,182.8001 319.0536,191.4524 319.6595,190.6777 320.2654,186.9787 320.8712,172.3013 321.4771,190.8516 322.083,198.8564 322.6889,208.9279 323.2948,172.415 323.9007,182.6488 324.5066,186.4094 325.1124,194.3978 325.7183,174.5237 326.3242,197.676 326.9301,210.4803 327.536,230.7156 328.1419,211.609 328.7478,214.6126 329.3536,203.8023 329.9595,230.7023 330.5654,214.3334 331.1713,200.7921 331.7772,201.3967 332.3831,206.699 332.989,219.0169 333.5948,230.6858 334.2007,177.2354 334.8066,196.9792 335.4125,202.1803 336.0184,216.9121 336.6243,201.779 337.2302,221.8036 337.836,205.7152 338.4419,230.72" style="fill:none;stroke:rgb(31,119,180);stroke-width:1.5;stroke-linejoin:bevel" />
  <polyline points="339.6537,214.4226 340.2596,202.4517 340.8655,182.3132 341.4714,186.0176 342.0772,212.9681 342.6831,119.788 343.289,206.4253 343.8949,205.5198 344.5008,216.1111 345.1067,207.3376 345.7125,223.2589 346.3184,194.1942 346.9243,207.572" style="fill:none;stroke:rgb(31,119,180);stroke-width:1.5;stroke-linejoin:bevel" />
  <polyline points="348.1361,217.359 348.742,203.1294 349.3479,214.7276 349.9537,201.4364 350.5596,191.0667 351.1655,197.472 351.7714,193.5097 352.3773,199.4796 352.9832,188.7561 353.5891,185.5121 354.1949,194.6381 354.8008,196.9898 355.4067,187.1805 356.0126,188.7222 356.6185,182.1828 357.2244,199.3649 357.8303,194.3061 358.4361,199.4798 359.042,187.0868 359.6479,182.0657 360.2538,191.2988 360.8597,206.2199 361.4656,180.514 362.0715,200.3866 362.6773,202.1202 363.2832,215.0858 363.8891,195.8368 364.495,215.9899 365.1009,203.3194 365.7068,224.0275 366.3127,219.0093 366.9185,214.197 367.5244,200.5148 368.1303,191.4142 368.7362,208.8254 369.3421,207.4001 369.948,198.8851 370.5539,209.0818 371.1597,197.2909 371.7656,220.352 372.3715,221.2298 372.9774,208.5337 373.5833,213.5635 374.1892,213.5647 374.795,208.7812 375.4009,203.1784 376.0068,185.383 376.6127,198.7603 377.2186,209.9215 377.8245,204.4527 378.4304,196.7032 379.0362,197.2733 379.6421,200.5158 380.248,208.1393 380.8539,183.6855 381.4598,191.8797 382.0657,200.5224 382.6716,196.2299 383.2774,223.5735 383.8833,196.4034 384.4892,198.3656" style="fill:none;stroke:rgb(31,119,180);stroke-width:1.5;stroke-linejoin:bevel" />
  <polyline points="385.701,209.057 386.3069,188.8386 386.9128,218.1087 387.5186,197.0043 388.1245,216.1141 388.7304,202.886 389.3363,219.032 389.9422,202.4615 390.5481,220.1969 391.154,203.4826 391.7598,212.6716 392.3657,201.2642 392.9716,188.4675 393.5775,203.046 394.1834,189.9439 394.7893,164.7709 395.3952,192.1834 396.001,180.359 396.6069,188.2194 397.2128,209.5602 397.8187,195.5742 398.4246,189.7875 399.0305,181.7599 399.6364,201.0844 400.2422,173.0784 400.8481,216.0312 401.454,177.7396 402.0599,206.1674 402.6658,195.2466 403.2717,199.0738 403.8775,203.8318 404.4834,196.5099 405.0893,200.6223 405.6952,197.2497 406.3011,188.5249 406.907,200.7695 407.5129,185.8891 408.1187,187.7072 408.7246,191.8603 409.3305,191.3113 409.9364,176.2804 410.5423,189.4659 411.1482,183.5308 411.7541,206.5262 412.3599,219.0339 412.9658,206.9779 413.5717,193.8508 414.1776,200.8208 414.7835,194.4954 415.3894,210.0899 415.9953,195.2059 416.6011,208.2701 417.207,199.3041 417.8129,214.3281 418.4188,200.7077 419.0247,208.2746 419.6306,205.956 420.2365,195.2061 420.8423,200.7758 421.4482,186.8047 422.0541,208.8543 422.66,191.7245 423.2659,219.7571 423.8718,206.6018 424.4777,199.4676 425.0835,200.2748 425.6894,205.4863 426.2953,178.7934 426.9012,195.8662 427.5071,185.9899 428.113,200.7193 428.7189,189.6813 429.3247,198.3387 429.9306,200.8715 430.5365,208.4193 431.1424,191.7453 431.7483,205.0615 432.3542,188.4126 432.96,194.015 433.5659,186.8903 434.1718,202.917 434.7777,210.1857 435.3836,199.9351 435.9895,191.4626 436.5954,177.6487 437.2012,194.3411 437.8071,208.3126 438.413,204.0918 439.0189,203.6891 439.6248,207.7454 440.2307,208.1129 440.8366,195.4453 441.4424,212.0078 442.0483,205.2473 442.6542,209.4625 443.2601,198.9974 443.866,201.4883 444.4719,206.2788 445.0778,200.0204 445.6836,229.8981 446.2895,207.8432 446.8954,202.9595 447.5013,187.6215 448.1072,176.5066 448.7131,178.6782 449.319,171.7749 449.9248,193.9115 450.5307,181.3 451.1366,191.577 451.7425,194.1953 452.3484,183.968 452.9543,188.7083 453.5602,194.4889 454.166,189.8662 454.7719,184.7656 455.3778,204.8155 455.9837,219.0395 456.5896,204.1568 457.1955,207.4086 457.8014,205.8929 458.4072,189.8929 459.0131,203.4529 459.619,218.9604 460.2249,200.0141 460.8308,206.2495 461.4367,206.9155 462.0425,230.7519 462.6484,201.2278 463.2543,214.5756 463.8602,214.3705 464.4661,208.1353 465.072,206.5375 465.6779,204.2042 466.2837,204.5256 466.8896,196.1767 467.4955,189.1945 468.1014,210.9108 468.7073,203.2784 469.3132,210.6762 469.9191,193.5072 470.5249,208.5224 471.1308,188.7091 471.7367,204.0182 472.3426,195.9767 472.9485,219.0462 473.5544,209.7886 474.1603,206.1004 474.7661,207.2767 475.372,210.0132 475.9779,208.7384 476.5838,208.4104 477.1897,208.337 477.7956,201.6919 478.4015,183.6385 479.0073,167.5244 479.6132,181.9105 480.2191,186.7325 480.825,183.1056 481.4309,183.4465 482.0368,187.4586 482.6427,192.0206 483.2485,195.545 483.8544,204.855 484.4603,197.162 485.0662,193.7576 485.6721,187.8821 486.278,173.8316 486.8839,190.3887 487.4897,186.1999 488.0956,191.391 488.7015,198.1201 489.3074,199.6799 489.9133,194.318 491.125,194.5032 491.7309,219.4134 492.3368,199.9366 492.9427,199.2374 493.5486,205.9296 494.1545,200.3922 494.7604,194.0279 495.3662,203.4413 497.1839,203.3789 497.7898,203.6832 498.3957,203.2969 499.0016,191.5253 499.6074,190.7842 500.2133,178.6136 500.8192,183.2283 501.4251,186.46 502.031,191.6082 502.6369,192.7696 503.2428,180.7058 503.8486,171.0491 504.4545,192.061 505.0604,196.5974 505.6663,204.5783 506.2722,186.9897 506.8781,199.2527 507.484,209.3365 508.0898,203.6465 509.9075,202.982 510.5134,203.9302 511.1193,196.1618 511.7252,203.6013 512.331,187.0642 512.9369,175.4551 513.5428,196.7849 514.1487,184.0386 514.7546,202.7041 515.3605,203.3686 515.9664,200.1517 516.5722,207.7115 517.1781,194.5147 517.784,203.7634 518.3899,194.0279 518.9958,203.2937 519.6017,206.2436 520.2075,190.1605 520.8134,180.7638 521.4193,200.0174 522.0252,183.2201 522.6311,185.658 523.237,169.7423 523.8429,200.3392 524.4487,209.3318 525.0546,206.2149 525.6605,197.7877 526.2664,203.4612 526.8723,205.6618 527.4782,200.4048 528.0841,192.1812 529.2958,192.555 529.9017,175.2103 530.5076,170.1932 531.1135,172.8834 531.7194,194.4624 532.3253,195.2393 532.9311,203.9121 534.7488,203.6259 535.3547,200.8364" style="fill:none;stroke:rgb(31,119,180);stroke-width:1.5;stroke-linejoin:bevel" />
  <polyline points="536.5665,205.2872 537.1723,203.2631" style="fill:none;stroke:rgb(31,119,180);stroke-width:1.5;stroke-linejoin:bevel" />
  <polyline points="537.3841,203.3657 539.3841,203.3657" style="fill:none;stroke:rgb(31,119,180);stroke-width:1.5;stroke-linejoin:bevel" />
  <polyline points="539.5959,197.0886 540.2018,203.4296 540.8077,196.8597 541.4135,203.4142 542.0194,197.0264 542.6253,203.5333 543.2312,185.1005 543.8371,189.1019 544.443,156.1683 545.0489,181.1076 545.6547,177.9347 546.2606,178.6415 546.8665,182.5509 547.4724,185.2091 548.0783,184.6731 548.6842,187.4272 549.29,204.8949 549.8959,195.8633 550.5018,196.9615" style="fill:none;stroke:rgb(31,119,180);stroke-width:1.5;stroke-linejoin:bevel" />
  <polyline points="553.5312,203.4318 554.1371,203.3591 554.743,198.3142 555.3489,203.6965 555.9548,200.0048 556.5607,203.9743 557.1666,195.2381 557.7724,203.6989 558.3783,195.0185 558.9842,203.4306 559.5901,203.3954 560.196,199.2366 560.8019,203.4054 561.4078,200.3813" style="fill:none;stroke:rgb(31,119,180);stroke-width:1.5;stroke-linejoin:bevel" />
  <polyline points="562.6195,179.1902 563.2254,195.9824 563.8313,199.6445 564.4372,180.9637 565.0431,198.2086 565.649,196.1531 566.2548,193.0714 566.8607,190.762 567.4666,192.8555 568.0725,195.7411 568.6784,186.4664 569.2843,180.2309 569.8902,175.2707 570.496,182.0164 571.1019,199.8181 571.7078,196.8623 572.3137,197.5396 572.9196,188.4452 573.5255,190.4163 574.1314,187.1223 574.7372,192.6206 575.3431,207.2029 575.949,202.9938 576.5549,185.3949 577.1608,194.2069 577.7667,203.3524 578.3725,200.0275 578.9784,193.1386 579.5843,199.2596 580.1902,191.0727 580.7961,193.7041 581.402,194.6634 582.0079,195.5569 582.6137,193.2224 583.2196,194.6638 583.8255,191.4272 584.4314,188.0221 585.0373,198.779 585.6432,181.9201 586.2491,169.8042 586.8549,181.9421 587.4608,185.5518 588.0667,201.2835 588.6726,178.3091 589.2785,189.7595 589.8844,188.0601 590.4903,178.1142 591.0961,187.8352 591.702,198.472 592.3079,197.4664 592.9138,195.3309 593.5197,202.3133 594.1256,193.488 594.7315,199.5726 595.3373,180.931 595.9432,181.7813 596.5491,194.3502 597.155,190.1027 597.7609,200.8264 598.3668,182.9376 598.9727,193.5784 599.5785,184.9081 600.1844,196.0402 600.7903,203.5024 601.3962,188.2159 602.0021,202.3733 602.608,195.6933 603.2139,182.776 603.8197,185.4289 604.4256,193.4398 605.0315,188.4447 605.6374,191.5211 606.2433,187.1017 606.8492,199.8745 607.455,199.6901 608.0609,185.8602 608.6668,202.1874 609.2727,184.7884 609.8786,182.5432 610.4845,186.8411 611.0904,189.6877 611.6962,178.7597 612.3021,190.5726 612.908,171.5334 613.5139,176.3883 614.1198,178.4063 614.7257,186.7328 615.3316,190.9435 615.9374,181.85 616.5433,182.3486 617.1492,172.2738 617.7551,186.141 618.361,188.1524 618.9669,189.049 619.5728,193.6114 620.1786,188.9646 620.7845,186.6961 621.3904,176.4184 621.9963,182.887 622.6022,176.5418 623.2081,183.0881 623.814,175.9426 624.4198,176.2248 625.0257,186.4318 625.6316,192.3587 626.8434,192.2417 627.4493,184.6633 628.0552,181.9283 628.661,186.9383 629.2669,187.9416 629.8728,173.3589 630.4787,185.6295 631.0846,181.9165 631.6905,189.4187 632.2964,188.7697 632.9022,180.7013 634.114,180.3509 634.7199,192.302 635.3258,185.5737 635.9317,179.3725 636.5375,197.9211 637.1434,182.403 637.7493,187.0999 638.3552,179.3467 638.9611,183.9096 639.567,192.9104 640.1729,199.6632 640.7787,190.5446 641.3846,182.7629 641.9905,183.3449 642.5964,188.1272 643.2023,197.6934 643.8082,198.7285 644.4141,171.2061 645.0199,187.3347 645.6258,187.846 646.2317,191.6742 646.8376,201.5452 647.4435,182.1713 648.0494,187.9344 648.6553,200.6746 649.2611,192.8918 649.867,200.5632 650.4729,198.171 651.0788,186.1472 651.6847,178.3005 652.2906,185.3542 652.8965,185.3228 653.5023,180.3822 654.1082,178.681 654.7141,184.4558 655.32,186.5173 655.9259,190.6408" style="fill:none;stroke:rgb(31,119,180);stroke-width:1.5;stroke-linejoin:bevel" />
  <polyline points="657.1377,193.7992 657.7435,203.5873 658.3494,203.5355 658.9553,187.5215 659.5612,188.9029 660.1671,192.4476 660.773,170.1018 661.3789,181.1618 661.9847,187.9978 662.5906,181.136 663.1965,178.5321 663.8024,191.4272 664.4083,192.3101 665.0142,188.7426 665.62,198.7478 666.2259,205.5646 666.8318,178.4471 667.4377,200.1504 668.0436,182.8005 668.6495,193.5015 669.2554,187.2449 669.8612,200.0348 670.4671,193.9081 671.073,188.3116 671.6789,191.7245 672.2848,192.1088 672.8907,200.5976 673.4966,203.5972 674.1024,203.4517 674.7083,186.8658 675.3142,196.2226 675.9201,193.7114 676.526,187.4665 677.1319,194.4723 677.7378,188.8307 678.3436,180.5642 678.9495,201.4457 679.5554,180.7846 680.1613,185.746 680.7672,194.5787 681.3731,203.3833 681.979,199.9059 682.5848,193.7421 683.1907,195.6318 683.7966,196.2691 684.4025,192.1496 685.0084,193.1203 685.6143,187.4797 686.2202,182.0482 686.826,193.3844 687.4319,180.1875 688.0378,197.7669" style="fill:none;stroke:rgb(31,119,180);stroke-width:1.5;stroke-linejoin:bevel" />
  <polyline points="689.2496,199.1051 689.8555,190.6871 690.4614,203.5619 691.0672,217.2355 691.6731,204.5766 692.279,203.3216 692.8849,194.5225 693.4908,190.0811 694.0967,203.7516 694.7025,175.6056" style="fill:none;stroke:rgb(31,119,180);stroke-width:1.5;stroke-linejoin:bevel" />
  <polyline points="695.9143,203.3833 696.5202,196.603 697.1261,203.3943 697.732,198.3122 698.3379,201.0378 698.9437,208.1045 699.5496,198.2623 700.1555,198.174 700.7614,200.8649" style="fill:none;stroke:rgb(31,119,180);stroke-width:1.5;stroke-linejoin:bevel" />
  <polyline points="700.9732,203.4054 702.9732,203.4054" style="fill:none;stroke:rgb(31,119,180);stroke-width:1.5;stroke-linejoin:bevel" />
  <polyline points="703.1849,203.9964 703.7908,186.7959 704.3967,178.0129 705.0026,187.148 705.6085,186.8013 706.2144,184.031 706.8203,191.1029 707.4261,189.8826 708.032,194.0562 708.6379,196.9439 709.2438,194.091 709.8497,195.6729 710.4556,181.2026 711.0615,203.3965 711.6673,183.2449 712.2732,184.8762 712.8791,185.576 713.485,193.1993 714.0909,186.7314 714.6968,176.4663 715.3027,187.0649 715.9085,196.4803 716.5144,179.5654 717.1203,186.9951 717.7262,186.2968 718.3321,191.1427 718.938,204.1915 719.5439,191.9798 720.1497,193.1758 720.7556,177.8451 721.3615,195.7288 721.9674,192.6745 722.5733,183.5354 723.1792,189.8914 723.785,201.6601 724.3909,187.2589 724.9968,203.5289 725.6027,193.5638 726.2086,186.4828 726.8145,174.7482 727.4204,190.3222 728.0262,179.3378 728.6321,195.7575 729.238,189.1954 729.8439,190.1334 730.4498,195.2348 731.0557,185.5638 731.6616,180.9981 732.2674,206.1531 732.8733,203.3127" style="fill:none;stroke:rgb(31,119,180);stroke-width:1.5;stroke-linejoin:bevel" />
  <polyline points="734.0851,199.5814 734.691,185.152 735.2969,176.1866 735.9028,193.9348 736.5086,196.8204 737.1145,198.6117 737.7204,203.5509 738.3263,198.9904 738.9322,196.943 739.5381,205.9947 740.144,191.4618 740.7498,184.1174 741.3557,198.3269 741.9616,200.4711 742,199.993" style="fill:none;stroke:rgb(31,119,180);stroke-width:1.5;stroke-linejoin:bevel" />
  <polygon points="44.02,8 742,8 742,236.894 44.02,236.894" style="fill:none;stroke:none;" />
  <polyline points="44.02,8 742,8" style="fill:none;stroke:rgb(204,204,204);stroke-width:0" />
  <polyline points="742,8 742,236.894" style="fill:none;stroke:rgb(204,204,204);stroke-width:0" />
  <polyline points="742,236.894 44.02,236.894" style="fill:none;stroke:rgb(204,204,204);stroke-width:1" />
  <polyline points="44.02,236.894 44.02,8" style="fill:none;stroke:rgb(204,204,204);stroke-width:0" />
  <polygon points="44.02,265.947 139.015,265.947 139.015,292 44.02,292" style="fill:none;stroke:none;" />
  <text dominant-baseline="hanging" text-anchor="start" transform="translate(72.02,273.947)" font-family="Arial" font-size="12" font-weight="400" fill="black">IncomingBytes</text>
  <polyline points="52.02,278.9735 68.02,278.9735" style="fill:none;stroke:rgb(31,119,180);stroke-width:1.5" />
</svg>